<svg width="167" height="135" viewBox="0 0 167 135" fill="none" xmlns="http://www.w3.org/2000/svg">
<path fill-rule="evenodd" clip-rule="evenodd" d="M0.695312 17.9476C0.695312 8.19237 8.6035 0.28418 18.3587 0.28418H148.647C158.402 0.28418 166.31 8.19237 166.31 17.9476V116.445C166.31 126.2 158.402 134.108 148.647 134.108H18.3588C8.60351 134.108 0.695312 126.2 0.695312 116.445V17.9476ZM138.59 15.2842H29.248L83.5923 65.7662L138.59 15.2842ZM15.6953 22.5843V116.445C15.6953 117.916 16.8878 119.108 18.3588 119.108H148.647C150.118 119.108 151.31 117.916 151.31 116.445V23.3888L88.4898 81.0513C85.6908 83.6205 81.3875 83.6077 78.6039 81.0219L15.6953 22.5843Z" fill="black"/>
</svg>
