<svg width="157" height="155" viewBox="0 0 157 155" fill="none" xmlns="http://www.w3.org/2000/svg">
<path fill-rule="evenodd" clip-rule="evenodd" d="M48.8496 0.929199H108.52C134.945 0.929199 156.402 22.1381 156.402 48.3439V107.431C156.402 133.599 134.984 154.846 108.52 154.846H48.8496C22.4238 154.846 0.966797 133.637 0.966797 107.431V48.3439C0.966797 22.1761 22.3848 0.929199 48.8496 0.929199ZM102.781 140.084C124.16 140.084 141.494 122.918 141.494 101.747V53.9894C141.494 32.8187 124.16 15.6533 102.781 15.6533H54.5508C33.1719 15.6533 15.8359 32.8187 15.8359 53.9894V101.747C15.8359 122.918 33.1719 140.084 54.5508 140.084H77.0195V94.7198H59.6172V75.1224H77.0195V61.2616C77.1016 48.0046 81.9043 43.4758 81.9043 43.4758H81.9316C88.9863 34.3085 100.047 34.5829 100.047 34.5829H117.641V53.0275H105.893C97.8242 52.8903 97.1367 59.7246 97.082 61.2616V75.1224H116.762L114.348 94.7198H97.082V140.084H102.781Z" fill="black"/>
</svg>
