<svg width="157" height="155" viewBox="0 0 157 155" fill="none" xmlns="http://www.w3.org/2000/svg">
<path d="M108.229 0.686279H48.5586C22.094 0.686279 0.675781 21.9333 0.675781 48.101V107.188C0.675781 133.394 22.1325 154.603 48.5586 154.603H108.229C134.694 154.603 156.112 133.356 156.112 107.188V48.101C156.112 21.8951 134.655 0.686279 108.229 0.686279ZM141.204 101.505C141.204 122.675 123.869 139.841 102.489 139.841H54.2598C32.8801 139.841 15.5453 122.675 15.5453 101.505V53.7465C15.5453 32.5758 32.8801 15.4104 54.2598 15.4104H102.489C123.869 15.4104 141.204 32.5758 141.204 53.7465V101.505Z" fill="black"/>
<path d="M80.5029 37.3113C57.8905 37.3113 39.5541 55.4685 39.5541 77.8598C39.5541 100.251 57.8905 118.408 80.5029 118.408C103.115 118.408 121.452 100.251 121.452 77.8598C121.452 55.4685 103.115 37.3113 80.5029 37.3113ZM80.5029 102.273C66.9046 102.273 55.8489 91.3633 55.8489 77.898C55.8489 64.4327 66.8661 53.4849 80.5029 53.4849C94.1397 53.4849 105.118 64.3945 105.118 77.898C105.118 91.4015 94.1011 102.273 80.5029 102.273Z" fill="black"/>
<path d="M118.591 26.3667C112.851 26.3667 108.19 30.9823 108.19 36.666C108.19 42.3496 112.851 46.9652 118.591 46.9652C124.331 46.9652 128.992 42.3496 128.992 36.666C128.992 30.9823 124.331 26.3667 118.591 26.3667Z" fill="black"/>
</svg>
