<svg width="157" height="155" viewBox="0 0 157 155" fill="none" xmlns="http://www.w3.org/2000/svg">
<path d="M57.3742 62.6443V117.306H40.3918V62.6443H57.3742Z" fill="black"/>
<path d="M39.043 45.3303C39.043 39.8906 43.4433 35.4682 48.883 35.4682L48.9051 35.446C55.185 35.446 60.1161 41.3943 58.3913 47.9838C57.5068 51.3006 54.787 53.9984 51.4701 54.8386C44.9028 56.4971 39.043 51.6102 39.043 45.3303Z" fill="black"/>
<path d="M84.5724 70.1183C86.8491 65.8301 92.3738 61.2989 100.639 61.2955C117.831 61.301 121.014 72.6206 121.014 87.3218V117.306H104.031V90.6797C104.031 84.3403 104.031 76.2213 95.2085 76.2213C86.3635 76.2213 85.0147 83.1425 85.0147 90.2627V117.306H68.0323V62.6443H84.3292V70.1183H84.5724Z" fill="black"/>
<path d="M100.639 61.2955C100.642 61.2955 100.645 61.2955 100.648 61.2955H100.626C100.63 61.2955 100.634 61.2955 100.639 61.2955Z" fill="black"/>
<path fill-rule="evenodd" clip-rule="evenodd" d="M48.8496 0.807861H108.52C134.946 0.807861 156.403 22.0167 156.403 48.2226V107.31C156.403 133.478 134.985 154.724 108.52 154.724H48.8496C22.4235 154.724 0.966797 133.516 0.966797 107.31V48.2226C0.966797 22.0548 22.385 0.807861 48.8496 0.807861ZM102.78 139.962C124.16 139.962 141.495 122.797 141.495 101.626V53.8681C141.495 32.6974 124.16 15.532 102.78 15.532H54.5508C33.1711 15.532 15.8363 32.6974 15.8363 53.8681V101.626C15.8363 122.797 33.1711 139.962 54.5508 139.962H102.78Z" fill="black"/>
</svg>
