<svg width="405" height="453" viewBox="0 0 405 453" fill="none" xmlns="http://www.w3.org/2000/svg">
<path fill-rule="evenodd" clip-rule="evenodd" d="M200.957 0.169857C120.203 -1.02462 41.6744 46.1532 12.0383 125.817C-22.0612 217.478 22.6491 325.209 116.004 359.409C163.784 376.913 216.265 370.819 258.119 346.462C261.696 344.38 265.247 342.249 268.658 339.903C294.828 321.9 315.846 296.207 327.344 264.24C352.595 194.033 321.758 112.546 254.677 80.4511C250.953 78.6693 247.093 77.0756 243.149 75.6086C242.368 75.3184 241.609 74.9974 240.82 74.7203C187.265 55.8852 126.515 73.527 92.4838 116.593C96.4433 118.057 100.031 120.207 103.307 122.76C134.176 85.0823 188.185 69.5886 235.993 86.0397C236.246 86.1274 236.507 86.1776 236.761 86.2672C240.447 87.5636 243.975 89.1006 247.458 90.6988C310.001 119.4 339.221 195.063 315.828 260.102C305.07 290.014 285.156 313.951 260.405 330.61C257.017 332.89 253.559 335.069 249.999 337.071C211.548 358.69 163.726 363.86 120.211 347.919C33.4797 316.145 -8.27748 215.525 23.5093 130.081C58.9908 34.7047 169.911 -11.1103 263.973 24.3414C270.946 26.9692 277.655 29.9911 284.131 33.3247C288.064 35.3498 291.882 37.5245 295.627 39.7922C377.799 89.558 413.832 196.058 378.86 287.814C365.189 323.683 342.546 353.594 314.463 376.377C311.054 379.142 307.551 381.777 303.987 384.33C250.935 422.33 181.465 436.488 116.086 419.634C115.288 423.764 113.72 427.582 111.769 431.171C182.961 449.96 258.855 433.835 315.68 391.005C319.228 388.331 322.683 385.528 326.076 382.648C353.949 358.989 376.447 328.489 390.287 292.176C426.651 196.767 390.743 86.4491 307.022 32.405C306.91 32.3324 306.79 32.2682 306.678 32.1964C302.9 29.7677 298.993 27.4952 295.024 25.3024C286.528 20.6095 277.636 16.4206 268.292 12.8988C246.355 4.63109 223.568 0.50427 200.957 0.169857Z" fill="black"/>
<path d="M78.4588 114.042C56.0447 114.042 37.7461 132.344 37.7461 154.758C37.7461 177.172 56.0447 195.471 78.4588 195.471C100.873 195.471 119.175 177.172 119.175 154.758C119.175 141.731 112.885 130.223 103.307 122.76C100.031 120.207 96.4435 118.058 92.484 116.593C88.1017 114.972 83.3905 114.042 78.4588 114.042ZM78.4588 126.275C80.7383 126.275 82.9255 126.604 85.0462 127.103C89.1937 128.079 92.9278 129.987 96.1442 132.546C102.685 137.752 106.942 145.693 106.942 154.758C106.942 170.561 94.2616 183.238 78.4588 183.238C62.6561 183.238 49.979 170.561 49.979 154.758C49.979 138.955 62.6561 126.275 78.4588 126.275Z" fill="black"/>
<path d="M76.13 371.209C53.7158 371.209 35.4141 389.51 35.4141 411.924C35.4141 434.339 53.7158 452.637 76.13 452.637C91.5509 452.637 104.863 443.876 111.769 431.171C113.72 427.582 115.289 423.764 116.087 419.634C116.57 417.134 116.846 414.562 116.846 411.924C116.846 389.51 98.5443 371.209 76.13 371.209ZM76.13 383.441C91.9328 383.441 104.613 396.122 104.613 411.924C104.613 413.399 104.393 414.811 104.18 416.223C103.548 420.417 102.104 424.327 99.8653 427.701C94.7776 435.369 86.0804 440.404 76.13 440.404C60.3273 440.404 47.65 427.727 47.65 411.924C47.65 396.122 60.3273 383.441 76.13 383.441Z" fill="black"/>
<path d="M303.987 384.33C307.55 381.777 311.054 379.142 314.463 376.377C297.453 366.475 282.033 354.167 268.658 339.903C265.246 342.249 261.696 344.38 258.119 346.462C271.545 361.105 286.98 373.87 303.987 384.33Z" fill="black"/>
<path d="M249.999 337.071C253.559 335.069 257.017 332.89 260.405 330.61C231.469 295.686 214.078 250.842 214.078 201.9C214.078 160.786 226.379 122.579 247.458 90.6989C243.975 89.1007 240.448 87.5637 236.761 86.2672C236.508 86.1777 236.247 86.1267 235.993 86.0398C214.42 119.449 201.846 159.205 201.846 201.9C201.846 253.154 219.915 300.204 249.999 337.071Z" fill="black"/>
<path d="M243.148 75.6086C247.093 77.0756 250.952 78.6693 254.676 80.4512C266.314 65.0227 280.109 51.3177 295.626 39.7922C291.882 37.5245 288.064 35.3501 284.13 33.325C268.612 45.4742 254.805 59.6979 243.148 75.6086Z" fill="black"/>
</svg>
