<svg width="154" height="155" viewBox="0 0 154 155" fill="none" xmlns="http://www.w3.org/2000/svg">
<path d="M93.134 111.578C93.0037 112.569 93.0045 112.569 93.0045 112.569C92.9907 112.568 92.9762 112.565 92.9624 112.563C70.3432 108.624 56.6698 96.5623 48.6657 85.4814C44.6682 79.9472 42.0855 74.6601 40.501 70.7532C39.7084 68.799 39.1646 67.1879 38.8179 66.0608C38.6445 65.4971 38.5204 65.0543 38.4389 64.7498C38.3982 64.5976 38.3682 64.4799 38.3481 64.399C38.3397 64.3654 38.333 64.3382 38.328 64.3174C35.8576 56.8675 38.5546 51.1987 41.8172 47.4607C43.4431 45.598 45.2154 44.2026 46.5761 43.2741C47.258 42.8088 47.8408 42.4579 48.2565 42.2216C48.4644 42.1035 48.6308 42.0138 48.7472 41.9527C48.8055 41.9221 48.8512 41.8987 48.8835 41.8824L48.9216 41.8633L48.9328 41.8577L48.9364 41.856L48.9377 41.8553L49.0917 42.1692C48.9384 41.855 48.9377 41.8553 48.9377 41.8553C51.8059 40.4565 55.5103 40.8379 57.7515 43.1437C58.5899 43.9975 59.3136 45.3762 59.9249 46.737C60.4002 47.7951 60.8473 48.9375 61.2468 49.958C61.3705 50.2741 61.4896 50.5785 61.6036 50.8651C61.7654 51.2602 61.9281 51.6546 62.0906 52.0483L62.0917 52.051C62.4937 53.0251 62.8939 53.995 63.2733 54.9609C64.144 57.0982 65.058 59.6011 64.9746 62.1607L64.974 62.1754C64.9026 63.6845 64.1753 64.9002 63.3765 65.8978C62.9761 66.3978 62.5367 66.8681 62.1272 67.3023L62.0266 67.4089C61.6467 67.8113 61.2982 68.1806 60.9892 68.551L60.9758 68.5667L60.9671 68.5766C60.231 69.4006 59.4941 70.2524 58.7526 71.1137C61.8198 78.8317 68.6177 84.6497 74.8337 88.5897C77.9993 90.5963 80.9784 92.0934 83.1657 93.0884C84.2586 93.5856 85.152 93.9566 85.7697 94.2024C85.8996 94.2541 86.0173 94.3003 86.1221 94.3409C87.7139 92.6956 89.2962 91.0545 90.8461 89.3833L90.8471 89.3822C90.9971 89.221 91.1536 89.0489 91.316 88.8704C91.8303 88.3051 92.4033 87.6751 93.0109 87.1224C93.8247 86.382 94.7911 85.6899 95.9637 85.3484L95.9711 85.3463C97.5789 84.8914 99.1445 85.1818 100.533 85.6703C101.535 86.023 102.539 86.5177 103.43 86.9569L103.432 86.9579C103.746 87.113 104.047 87.2612 104.329 87.3938L104.346 87.4024C106.829 88.6318 108.854 89.7643 111.003 90.9667L111.342 91.1562C111.429 91.1774 111.514 91.2104 111.594 91.2547C113.525 92.3305 115.435 94.0274 115.668 96.6975L115.668 96.7003C115.874 99.1484 115.224 102.244 114.26 104.432C111.94 109.75 106.424 111.718 101.81 112.412C99.4702 112.764 97.2758 112.803 95.6704 112.755C94.8661 112.731 94.2055 112.686 93.7434 112.646C93.5123 112.626 93.3306 112.607 93.2051 112.593C93.1423 112.586 93.0936 112.58 93.0598 112.576L93.0203 112.571L93.0091 112.57L93.0057 112.57L93.0045 112.569L93.134 111.578Z" fill="white"/>
<path fill-rule="evenodd" clip-rule="evenodd" d="M0.107415 77.3832C0.259485 91.3875 4.21151 104.501 10.9967 115.688L1.91718 153.472C1.83374 153.819 1.94179 154.185 2.20066 154.431C2.45952 154.677 2.82992 154.766 3.17243 154.665L40.5843 143.629C51.563 149.443 64.148 152.716 77.4824 152.603L77.4838 152.603C119.811 152.185 153.822 117.913 153.4 75.973C152.978 34.126 118.502 0.516424 76.2967 0.787543C76.2084 0.76342 76.1164 0.751325 76.0232 0.752246C33.6959 1.17062 -0.315355 35.4434 0.107415 77.3832ZM42.2674 127.553L22.3917 133.443L27.295 113.051C27.3627 112.769 27.305 112.472 27.1367 112.236C20.1222 102.408 15.9455 90.4788 15.8336 77.5514L15.8336 77.5501C15.4979 43.7562 42.9143 16.0767 77.0655 15.7811L77.0666 15.781C111.218 15.4484 139.157 42.6113 139.456 76.4049L139.456 76.406C139.79 110.111 112.519 137.734 78.4933 138.172C78.4062 138.149 78.3156 138.137 78.2238 138.137C65.1974 138.248 53.1077 134.368 43.1075 127.68C42.8603 127.515 42.5525 127.468 42.2674 127.553Z" fill="white"/>
</svg>
